<?xml version="1.0" encoding="utf-8"?>
<svg version="1.1" id="Layer_1" xmlns="http://www.w3.org/2000/svg" xmlns:xlink="http://www.w3.org/1999/xlink" x="0px" y="0px"
	 viewBox="0 0 320 320" style="enable-background:new 0 0 320 320;" xml:space="preserve">
<style type="text/css">
	.st0{fill:#4C6586;}
</style>
<g>
	<!-- Left user -->
	<circle class="st0" cx="89" cy="86" r="31"/>
	<path class="st0" d="M40,170c0-30.9,22.8-52,49-52s49,21.1,49,52v14H40V170z"/>

	<!-- Right user -->
	<circle class="st0" cx="231" cy="86" r="31"/>
	<path class="st0" d="M182,170c0-30.9,22.8-52,49-52s49,21.1,49,52v14h-98V170z"/>

	<!-- Top arrow: left to right -->
	<path class="st0" d="M86,208c0-8.3,6.7-15,15-15h109.8l-13.7-13.7c-5.8-5.8-5.8-15.4,0-21.2c5.9-5.9,15.4-5.9,21.2,0l39.3,39.3
		c5.9,5.9,5.9,15.4,0,21.2l-39.3,39.3c-5.8,5.8-15.4,5.8-21.2,0c-5.8-5.9-5.8-15.4,0-21.2l13.7-13.7H101C92.7,223,86,216.3,86,208z"/>

	<!-- Bottom arrow: right to left -->
	<path class="st0" d="M234,270c0,8.3-6.7,15-15,15H109.2l13.7,13.7c5.8,5.8,5.8,15.4,0,21.2c-5.9,5.9-15.4,5.9-21.2,0l-39.3-39.3
		c-5.9-5.9-5.9-15.4,0-21.2l39.3-39.3c5.8-5.8,15.4-5.8,21.2,0c5.8,5.9,5.8,15.4,0,21.2l-13.7,13.7H219C227.3,255,234,261.7,234,270z"/>
</g>
</svg>
